<svg t="1664457389254" class="icon" viewBox="0 0 1024 1024" version="1.1" xmlns="http://www.w3.org/2000/svg" p-id="1126" width="200" height="200"><path d="M889.4 391.8l-31-31c34.8-25.8 57.2-67.3 57.2-114.2 0-78.8-64.1-143.1-143.1-143.1-46.6 0-88.2 22.4-114.2 57.2l-28.9-28.9c-21.8-21.8-50.8-33.7-81.9-33.7-31 0-60.1 11.9-81.9 33.7l-87.8 87.8 19.3 22.8C419 264.2 431 293.2 431 324c0 30.8-12 59.8-33.8 81.6-44.5 44.5-116.4 44.8-161.5 1.3l-20.3-24.8-88.5 88.5C105.1 492.4 93 521.7 93 552.5c0 31 12.1 60.3 33.9 82.1l51.4 51.2c5.8-4.9 11.3-10.1 15.6-14.2 21.7-21.7 50.6-33.8 81.3-33.9 30.7 0.5 59.8 11.8 81.7 33.6 45.1 44.9 45.3 118 0.5 163.1l0.1 0.1-14.3 16.1 3.9 3.9 39.8 39.8c21.8 22 50.8 33.9 81.9 33.9s60.1-11.9 81.9-33.9l338.8-338.8c45.2-45.1 45.2-118.6-0.1-163.7z m-23.3 140.4L527.3 871c-32.4 32.4-84.7 32.4-117.1 0l-21.8-21.8c49.8-58.4 47.1-146.4-8.2-201.3-28-27.9-65.1-43.2-104.6-43.2h-0.4c-35.5 0.1-69.1 12.7-95.8 35.6l-29.1-29c-15.6-15.6-24.2-36.5-24.2-58.8 0-22 8.6-42.9 24.2-58.6l62.9-62.9c28.6 27.4 65.5 41.2 102.5 41.2 38 0 76-14.5 104.9-43.4 28-28 43.5-65.3 43.5-104.9 0-39.3-15.3-76.3-42.9-104.3l67.9-64.6c15.6-15.6 36.3-24 58.6-24 22.2 0 43.1 8.4 58.6 24l35 35v0.1l25.8 25.8c3.3-11.4 8.4-22.2 15-31.7 20-28.8 53-47.8 90.7-47.8 60.8 0 110.1 49.5 110.1 110.1 0 37.6-18.9 70.8-47.7 90.7l-0.1-0.1c-9.7 6.6-20.3 11.9-31.7 15l0.1 0.1h-0.1l25.8 25.8h0.1l37.1 37.1c32 32.4 32 85-0.3 117.1z" fill="#2c2c2c" p-id="1127"></path></svg>