<svg t="1664349961343" class="icon" viewBox="0 0 1104 1024" version="1.1" xmlns="http://www.w3.org/2000/svg" p-id="2287" width="200" height="200"><path d="M552.478118 48.971784a70.519369 70.519369 0 0 1 45.054041 16.160689l450.540411 368.757532a19.588714 19.588714 0 0 1-12.242946 34.769966h-51.910091a40.156863 40.156863 0 0 0-39.667145 40.156863v363.860354a102.840746 102.840746 0 0 1-102.351028 102.351028h-146.915351a54.35868 54.35868 0 0 1-53.868963-53.868962v-199.31516A51.910091 51.910091 0 0 0 587.737802 669.934003h-70.519369a51.910091 51.910091 0 0 0-51.910091 51.910091v199.31516a53.868962 53.868962 0 0 1-53.868962 53.868962h-146.915351a102.351028 102.351028 0 0 1-101.861311-102.351028v-365.329507a38.687709 38.687709 0 0 0-38.687709-38.68771H69.126611a19.588714 19.588714 0 0 1-12.732664-34.769966l450.540412-368.757532a71.988522 71.988522 0 0 1 45.543759-16.160689m0-48.971784a119.491153 119.491153 0 0 0-76.395983 27.424199L25.541724 395.692013a68.560497 68.560497 0 0 0 43.584887 121.939742h42.605452v355.045433a151.322812 151.322812 0 0 0 150.833094 151.322812h146.915352a103.330464 103.330464 0 0 0 102.840746-102.840746v-199.31516a2.938307 2.938307 0 0 1 2.938307-2.938307H587.737802a2.938307 2.938307 0 0 1 2.448589 2.938307v199.31516a103.330464 103.330464 0 0 0 102.840746 102.840746h146.915352a151.81253 151.81253 0 0 0 151.322812-151.322812v-355.045433h42.605452a67.581062 67.581062 0 0 0 64.642754-45.543759A68.560497 68.560497 0 0 0 1077.45564 395.692013L628.8741 27.424199A121.450024 121.450024 0 0 0 552.478118 0z" fill="#231815" p-id="2288"></path></svg>