<svg t="1664350069909" class="icon" viewBox="0 0 1024 1024" version="1.1" xmlns="http://www.w3.org/2000/svg" p-id="3000" width="200" height="200"><path d="M806.57937557 156.29540399h-132.560719v-22.09345317c0-32.55102101-26.36485411-58.91587511-58.91587511-58.91587512H408.89721854c-32.55102101 0-58.91587511 26.36485411-58.91587511 58.91587512v22.09345317h-132.560719c-32.55102101 0-58.91587511 26.36485411-58.91587513 58.9158751v674.58677009c0 32.55102101 26.36485411 58.91587511 58.91587513 58.91587512h589.15875114c32.55102101 0 58.91587511-26.36485411 58.91587513-58.91587512v-674.58677009c0-32.55102101-26.36485411-58.91587511-58.91587513-58.9158751z m-412.41112581-7.3644844c0-16.34915535 13.2560719-29.45793756 29.45793756-29.45793756h176.74762536c16.20186565 0 29.45793756 13.10878221 29.45793756 29.45793756v58.91587512c0 16.34915535-13.2560719 29.45793756-29.45793756 29.45793757H423.62618732c-16.20186565 0-29.45793756-13.10878221-29.45793756-29.45793757v-58.91587512z m427.14009459 726.13816082c0 16.34915535-13.2560719 29.45793756-29.45793754 29.45793756H232.14959319c-16.20186565 0-29.45793756-13.10878221-29.45793754-29.45793756v-645.12883254c0-16.34915535 13.2560719-29.45793756 29.45793754-29.45793756h117.83175024v22.09345318c0 32.55102101 26.36485411 58.91587511 58.91587511 58.91587512h206.20556292c32.55102101 0 58.91587511-26.36485411 58.91587511-58.91587512v-22.09345318h117.83175024c16.20186565 0 29.45793756 13.10878221 29.45793754 29.45793756v645.12883254z" fill="#333333" p-id="3001"></path><path d="M725.57004731 400.79628573H430.99067171c-12.22504409 0-22.09345317 9.86840908-22.09345317 22.09345316s9.86840908 22.09345317 22.09345317 22.09345316h294.5793756c12.22504409 0 22.09345317-9.86840908 22.09345317-22.09345316s-9.86840908-22.09345317-22.09345317-22.09345316zM725.57004731 545.14017975H430.99067171c-12.22504409 0-22.09345317 9.86840908-22.09345317 22.09345317s9.86840908 22.09345317 22.09345317 22.09345316h294.5793756c12.22504409 0 22.09345317-9.86840908 22.09345317-22.09345316s-9.86840908-22.09345317-22.09345317-22.09345317zM651.92520341 689.48407379H430.99067171c-12.22504409 0-22.09345317 9.86840908-22.09345317 22.09345318s9.86840908 22.09345317 22.09345317 22.09345315h220.9345317c12.22504409 0 22.09345317-9.86840908 22.09345316-22.09345315s-9.86840908-22.09345317-22.09345316-22.09345318zM327.88789026 400.79628573h-29.45793757c-12.22504409 0-22.09345317 9.86840908-22.09345317 22.09345316s9.86840908 22.09345317 22.09345317 22.09345316h29.45793757c12.22504409 0 22.09345317-9.86840908 22.09345317-22.09345316s-9.86840908-22.09345317-22.09345317-22.09345316zM327.88789026 545.14017975h-29.45793757c-12.22504409 0-22.09345317 9.86840908-22.09345317 22.09345317s9.86840908 22.09345317 22.09345317 22.09345316h29.45793757c12.22504409 0 22.09345317-9.86840908 22.09345317-22.09345316s-9.86840908-22.09345317-22.09345317-22.09345317zM327.88789026 689.48407379h-29.45793757c-12.22504409 0-22.09345317 9.86840908-22.09345317 22.09345318s9.86840908 22.09345317 22.09345317 22.09345315h29.45793757c12.22504409 0 22.09345317-9.86840908 22.09345317-22.09345315s-9.86840908-22.09345317-22.09345317-22.09345318z" fill="#333333" p-id="3002"></path></svg>