<svg t="1664350048176" class="icon" viewBox="0 0 1024 1024" version="1.1" xmlns="http://www.w3.org/2000/svg" p-id="2859" width="200" height="200"><path d="M704 480c12.8 0 21.333333-8.533333 21.333333-21.333333s-8.533333-21.333333-21.333333-21.333334h-119.466667l100.266667-100.266666c8.533333-8.533333 8.533333-21.333333 0-29.866667-8.533333-8.533333-21.333333-8.533333-29.866667 0l-130.133333 130.133333h-25.6l-130.133333-130.133333c-8.533333-8.533333-21.333333-8.533333-29.866667 0-8.533333 8.533333-8.533333 21.333333 0 29.866667l100.266667 100.266666H320c-12.8 0-21.333333 8.533333-21.333333 21.333334s8.533333 21.333333 21.333333 21.333333h170.666667v128h-170.666667c-12.8 0-21.333333 8.533333-21.333333 21.333333s8.533333 21.333333 21.333333 21.333334h170.666667v170.666666c0 12.8 8.533333 21.333333 21.333333 21.333334s21.333333-8.533333 21.333333-21.333334v-170.666666h170.666667c12.8 0 21.333333-8.533333 21.333333-21.333334s-8.533333-21.333333-21.333333-21.333333h-170.666667v-128h170.666667z" fill="#666767" p-id="2860"></path><path d="M853.333333 74.666667h-170.666666c0-23.466667-19.2-42.666667-42.666667-42.666667H384c-23.466667 0-42.666667 19.2-42.666667 42.666667H170.666667c-36.266667 0-64 27.733333-64 64v789.333333c0 36.266667 27.733333 64 64 64h682.666666c36.266667 0 64-27.733333 64-64v-789.333333c0-36.266667-27.733333-64-64-64z m21.333334 853.333333c0 12.8-8.533333 21.333333-21.333334 21.333333H170.666667c-12.8 0-21.333333-8.533333-21.333334-21.333333v-789.333333c0-12.8 8.533333-21.333333 21.333334-21.333334h682.666666c12.8 0 21.333333 8.533333 21.333334 21.333334v789.333333z" fill="#666767" p-id="2861"></path></svg>